<svg width="47" height="46" viewBox="0 0 47 46" fill="none" xmlns="http://www.w3.org/2000/svg">
<rect x="0.0942383" width="46" height="46" rx="23" fill="url(#paint0_radial_1048_2453)"/>
<rect x="3.59424" y="3.5" width="39" height="39" rx="19.5" stroke="#A29161" stroke-width="3"/>
<path d="M26.8433 17.019C27.5049 17.019 28.1665 17.019 28.8137 17.019C30.8273 17.0329 32.8409 17.0606 34.8401 17.0606C35.473 17.0606 35.588 17.3374 35.5449 17.8771C35.3867 19.4964 34.5669 20.4375 32.8841 20.659C31.7766 20.7974 30.6403 20.7697 29.5185 20.7697C29.3603 20.7697 29.0726 20.6036 29.0438 20.4791C28.713 19.1089 28.0514 17.9463 26.8433 17.019Z" fill="#A29161"/>
<path d="M11.6548 21.545C13.4383 21.545 15.0779 21.5311 16.7175 21.5588C16.8758 21.5588 17.149 21.8494 17.1634 22.0017C17.2066 22.9705 17.2066 23.9393 17.149 24.9081C17.1347 25.088 16.8326 25.3787 16.66 25.3787C15.7539 25.3787 14.8334 25.3787 13.9417 25.2541C12.8773 25.1019 12.1726 24.4375 11.9281 23.4272C11.7698 22.7767 11.7267 22.0847 11.6548 21.545Z" fill="#A29161"/>
<path d="M34.0057 21.4478C34.4803 23.4822 33.4591 25.0185 31.4024 25.2676C30.2949 25.3922 29.1586 25.3645 28.0368 25.3922C27.8786 25.3922 27.7347 25.323 27.4902 25.2538C27.8067 24.8801 28.1518 24.5895 28.3101 24.2296C28.6121 23.5653 28.7703 22.8318 29.0436 22.1536C29.1299 21.9322 29.4032 21.6277 29.6045 21.6138C30.338 21.5723 31.0859 21.6692 31.8195 21.6415C32.553 21.6138 33.2721 21.517 34.0057 21.4478Z" fill="#A29161"/>
<path d="M13.1935 26.1394C14.4016 26.1394 15.5666 26.1256 16.7173 26.1671C16.8755 26.1671 17.1631 26.4854 17.1487 26.6377C17.1056 27.5788 17.0337 28.5199 16.8899 29.4472C16.8611 29.6548 16.5159 29.9454 16.3002 29.9593C14.2003 30.0977 12.575 28.0078 13.1935 26.1394Z" fill="#A29161"/>
<path d="M32.6107 26.1947C31.1293 26.1947 29.7054 26.1809 28.2671 26.1947C27.4617 26.1947 26.8288 25.9179 26.3398 25.1014C26.5124 24.963 26.685 24.8522 26.8432 24.7138C28.6554 23.0945 28.6986 20.0359 26.9151 18.3889C25.8508 17.3786 24.4988 17.0187 23.0605 16.9911C19.0045 16.9495 14.963 16.9772 10.9214 16.9634C10.4036 16.9634 10.2598 17.171 10.2598 17.6277C10.231 19.4546 11.4536 20.7002 13.4959 20.7971C14.7328 20.8663 15.9841 20.8248 17.2355 20.8109C17.7245 20.7971 17.9402 20.977 17.9258 21.4476C17.8252 24.1325 17.7389 26.8314 17.6526 29.5163C17.6526 29.6409 17.6813 29.7793 17.6957 29.9869C18.7744 29.9869 19.8244 29.9869 20.8743 29.9869C21.9099 29.9731 21.9099 29.9731 21.9099 28.9489C21.9099 28.0493 21.9099 27.1358 21.9099 26.2362C21.9818 26.2224 22.0537 26.1947 22.1256 26.1809C22.327 26.3885 22.5427 26.6099 22.7297 26.8314C23.2763 27.468 23.7653 28.1739 24.3837 28.7413C24.9015 29.2119 25.5487 29.807 26.1816 29.8623C27.5911 30.0007 29.0582 30.0008 30.4533 29.7655C32.1649 29.4748 33.1141 27.6203 32.6107 26.1947ZM23.5783 22.8316C23.4345 22.9146 23.305 22.97 23.1756 23.0115C22.9886 23.0807 22.8304 23.1084 22.6866 23.1084C22.1544 23.1084 21.9099 22.6378 21.9243 21.6829C21.9243 21.6413 21.9099 21.586 21.9243 21.5445C22.0537 21.1708 21.5935 20.548 22.3558 20.4372C23.1468 20.3127 23.9954 20.7556 24.1824 21.3507C24.3837 21.9458 24.1536 22.5133 23.5783 22.8316Z" fill="#A29161"/>
<defs>
<radialGradient id="paint0_radial_1048_2453" cx="0" cy="0" r="1" gradientUnits="userSpaceOnUse" gradientTransform="translate(23.0942 23) rotate(90) scale(23)">
<stop stop-color="#1E1E1E"/>
<stop offset="1" stop-color="#2C2C2C"/>
</radialGradient>
</defs>
</svg>
