<svg width="47" height="48" viewBox="0 0 47 48" fill="none" xmlns="http://www.w3.org/2000/svg">
<rect width="46.1887" height="48" rx="6" fill="#2B2B2B"/>
<path d="M29.8434 21.7096V21.005C29.8434 17.1362 26.8217 14 23.0942 14C19.3668 14 16.3451 17.1362 16.3451 21.005V21.7096C16.3451 22.5552 16.104 23.3818 15.652 24.0854L14.5446 25.8095C13.5331 27.3843 14.3053 29.5249 16.0646 30.0229C20.667 31.3257 25.5215 31.3257 30.1239 30.0229C31.8832 29.5249 32.6554 27.3843 31.6439 25.8095L30.5364 24.0854C30.0845 23.3818 29.8434 22.5552 29.8434 21.7096Z" stroke="#FBFBFB" stroke-width="1.5"/>
<path d="M18.5942 31C19.2493 32.7478 21.0167 34 23.0942 34C25.1718 34 26.9392 32.7478 27.5942 31" stroke="#FBFBFB" stroke-width="1.5" stroke-linecap="round"/>
</svg>
