<svg width="48" height="48" viewBox="0 0 48 48" fill="none" xmlns="http://www.w3.org/2000/svg">
<path d="M29.2627 15.0317C30.1471 15.0317 31.0315 15.0317 31.8967 15.0317C34.5884 15.051 37.28 15.0894 39.9525 15.0894C40.7984 15.0894 40.9523 15.4739 40.8946 16.2238C40.6831 18.4732 39.5872 19.7806 37.3377 20.0882C35.8573 20.2805 34.3384 20.2421 32.8388 20.2421C32.6273 20.2421 32.2428 20.0113 32.2043 19.8383C31.7621 17.9349 30.8777 16.3199 29.2627 15.0317Z" fill="#EE2E22"/>
<path d="M8.95947 21.3183C11.3435 21.3183 13.5353 21.2991 15.7271 21.3375C15.9386 21.3375 16.3039 21.7413 16.3231 21.9527C16.3808 23.2986 16.3808 24.6444 16.3039 25.9903C16.2847 26.2402 15.8809 26.644 15.6502 26.644C14.439 26.644 13.2085 26.644 12.0164 26.4709C10.5937 26.2594 9.65162 25.3366 9.32477 23.9331C9.11328 23.0294 9.0556 22.0681 8.95947 21.3183Z" fill="#EE2E22"/>
<path d="M38.8374 21.1836C39.4719 24.0099 38.1068 26.144 35.3575 26.49C33.877 26.6631 32.3582 26.6246 30.8585 26.6631C30.647 26.6631 30.4548 26.5669 30.1279 26.4708C30.5509 25.9517 31.0123 25.548 31.2238 25.0481C31.6276 24.1252 31.8391 23.1062 32.2044 22.1641C32.3197 21.8565 32.685 21.4335 32.9542 21.4143C33.9347 21.3566 34.9345 21.4912 35.915 21.4528C36.8956 21.4143 37.8569 21.2797 38.8374 21.1836Z" fill="#EE2E22"/>
<path d="M11.017 27.7008C12.632 27.7008 14.1894 27.6816 15.7275 27.7393C15.9389 27.7393 16.3235 28.1815 16.3042 28.393C16.2466 29.7004 16.1504 31.0077 15.9582 32.2959C15.9197 32.5843 15.4583 32.988 15.1699 33.0073C12.3629 33.1995 10.1903 30.2964 11.017 27.7008Z" fill="#EE2E22"/>
<path d="M36.9725 27.778C34.9922 27.778 33.0888 27.7588 31.1662 27.778C30.0895 27.778 29.2435 27.3935 28.5899 26.2591C28.8206 26.0669 29.0513 25.9131 29.2628 25.7208C31.6853 23.4713 31.743 19.2223 29.3589 16.9344C27.9362 15.5309 26.1289 15.031 24.2063 14.9926C18.7845 14.9349 13.3819 14.9733 7.97931 14.9541C7.28716 14.9541 7.0949 15.2425 7.0949 15.877C7.05645 18.4148 8.69068 20.1452 11.4208 20.2798C13.0743 20.3759 14.747 20.3182 16.4196 20.299C17.0733 20.2798 17.3617 20.5297 17.3425 21.1834C17.2079 24.9133 17.0926 28.6624 16.9772 32.3923C16.9772 32.5653 17.0156 32.7576 17.0349 33.046C18.4768 33.046 19.8804 33.046 21.2839 33.046C22.6682 33.0268 22.6682 33.0268 22.6682 31.604C22.6682 30.3543 22.6682 29.0854 22.6682 27.8357C22.7643 27.8165 22.8604 27.778 22.9566 27.7588C23.2257 28.0472 23.5141 28.3548 23.7641 28.6624C24.4947 29.5468 25.1484 30.5274 25.9751 31.3156C26.6672 31.9693 27.5324 32.7961 28.3784 32.873C30.2625 33.0652 32.2236 33.0652 34.0886 32.7384C36.3765 32.3346 37.6454 29.7583 36.9725 27.778ZM24.8984 23.106C24.7062 23.2214 24.5331 23.2983 24.3601 23.356C24.1101 23.4521 23.8986 23.4906 23.7064 23.4906C22.995 23.4906 22.6682 22.8369 22.6874 21.5103C22.6874 21.4526 22.6682 21.3757 22.6874 21.318C22.8604 20.7989 22.2452 19.9337 23.2642 19.7799C24.3216 19.6069 25.456 20.2221 25.7059 21.0488C25.9751 21.8756 25.6675 22.6638 24.8984 23.106Z" fill="#EE2E22"/>
</svg>
