<svg width="40" height="26" viewBox="0 0 40 26" fill="none" xmlns="http://www.w3.org/2000/svg">
<rect x="0.5" y="0.5" width="39" height="25" rx="4.5" fill="url(#paint0_linear_444_22724)"/>
<rect x="0.5" y="0.5" width="39" height="25" rx="4.5" stroke="url(#paint1_linear_444_22724)"/>
<path d="M6.06519 7.06494H11.7174V12.7171H6.06519V7.06494Z" fill="white" fill-opacity="0.6"/>
<path d="M12.2827 7.06494H17.9349V12.7171H12.2827V7.06494Z" fill="white" fill-opacity="0.6"/>
<path d="M6.06519 13.2822H11.7174V18.9344H6.06519V13.2822Z" fill="white" fill-opacity="0.6"/>
<path d="M12.2827 13.2822H17.9349V18.9344H12.2827V13.2822Z" fill="white" fill-opacity="0.6"/>
<path d="M27.9108 19.16C27.0361 19.16 26.1988 19.0373 25.3988 18.792C24.5988 18.536 23.9641 18.2107 23.4948 17.816L24.2148 16.2C24.6628 16.552 25.2175 16.8453 25.8788 17.08C26.5401 17.3147 27.2175 17.432 27.9108 17.432C28.4975 17.432 28.9721 17.368 29.3348 17.24C29.6975 17.112 29.9641 16.9413 30.1348 16.728C30.3055 16.504 30.3908 16.2533 30.3908 15.976C30.3908 15.6347 30.2681 15.3627 30.0228 15.16C29.7775 14.9467 29.4575 14.7813 29.0628 14.664C28.6788 14.536 28.2468 14.4187 27.7668 14.312C27.2975 14.2053 26.8228 14.0827 26.3428 13.944C25.8735 13.7947 25.4415 13.608 25.0468 13.384C24.6628 13.1493 24.3481 12.84 24.1028 12.456C23.8575 12.072 23.7348 11.5813 23.7348 10.984C23.7348 10.376 23.8948 9.82133 24.2148 9.32C24.5455 8.808 25.0415 8.40267 25.7028 8.104C26.3748 7.79467 27.2228 7.64 28.2468 7.64C28.9188 7.64 29.5855 7.72533 30.2468 7.896C30.9081 8.06667 31.4841 8.312 31.9748 8.632L31.3188 10.248C30.8175 9.94933 30.3001 9.73067 29.7668 9.592C29.2335 9.44267 28.7215 9.368 28.2308 9.368C27.6548 9.368 27.1855 9.43733 26.8228 9.576C26.4708 9.71467 26.2095 9.896 26.0388 10.12C25.8788 10.344 25.7988 10.6 25.7988 10.888C25.7988 11.2293 25.9161 11.5067 26.1508 11.72C26.3961 11.9227 26.7108 12.0827 27.0948 12.2C27.4895 12.3173 27.9268 12.4347 28.4068 12.552C28.8868 12.6587 29.3615 12.7813 29.8308 12.92C30.3108 13.0587 30.7428 13.24 31.1268 13.464C31.5215 13.688 31.8361 13.992 32.0708 14.376C32.3161 14.76 32.4388 15.2453 32.4388 15.832C32.4388 16.4293 32.2735 16.984 31.9428 17.496C31.6228 17.9973 31.1268 18.4027 30.4548 18.712C29.7828 19.0107 28.9348 19.16 27.9108 19.16Z" fill="white" fill-opacity="0.6"/>
<defs>
<linearGradient id="paint0_linear_444_22724" x1="20" y1="0" x2="20" y2="26" gradientUnits="userSpaceOnUse">
<stop stop-color="#353535"/>
<stop offset="1" stop-color="#2A2A2A"/>
</linearGradient>
<linearGradient id="paint1_linear_444_22724" x1="20" y1="0" x2="20" y2="26" gradientUnits="userSpaceOnUse">
<stop stop-color="#383840"/>
<stop offset="1" stop-color="#1E1E1E"/>
</linearGradient>
</defs>
</svg>
