<svg width="18" height="18" viewBox="0 0 18 18" fill="none" xmlns="http://www.w3.org/2000/svg">
<path d="M9.00008 13.792C9.34526 13.792 9.62508 13.5122 9.62508 13.167V8.16699C9.62508 7.82181 9.34526 7.54199 9.00008 7.54199C8.6549 7.54199 8.37508 7.82181 8.37508 8.16699V13.167C8.37508 13.5122 8.6549 13.792 9.00008 13.792Z" fill="white"/>
<path d="M9.00008 4.83366C9.46032 4.83366 9.83341 5.20675 9.83341 5.66699C9.83341 6.12723 9.46032 6.50033 9.00008 6.50033C8.53984 6.50033 8.16675 6.12723 8.16675 5.66699C8.16675 5.20675 8.53984 4.83366 9.00008 4.83366Z" fill="white"/>
<path fill-rule="evenodd" clip-rule="evenodd" d="M0.041748 9.00033C0.041748 4.05277 4.05253 0.0419922 9.00008 0.0419922C13.9476 0.0419922 17.9584 4.05277 17.9584 9.00033C17.9584 13.9479 13.9476 17.9587 9.00008 17.9587C4.05253 17.9587 0.041748 13.9479 0.041748 9.00033ZM9.00008 1.29199C4.74289 1.29199 1.29175 4.74313 1.29175 9.00033C1.29175 13.2575 4.74289 16.7087 9.00008 16.7087C13.2573 16.7087 16.7084 13.2575 16.7084 9.00033C16.7084 4.74313 13.2573 1.29199 9.00008 1.29199Z" fill="white"/>
</svg>
